<svg width="190.1" height="71.501" viewBox="0 0 190.1 71.501" xmlns="http://www.w3.org/2000/svg"><g id="svgGroup" stroke-linecap="round" fill-rule="evenodd" font-size="9pt" stroke="#ffffff" stroke-width="0.25mm" fill="#ffffff" style="stroke:#ffffff;stroke-width:0.25mm;fill:#ffffff"><path d="M 78 70.3 L 68.5 70.3 L 68.5 0.3 L 78 0.3 L 78 30.2 L 112.5 30.2 L 112.5 0.3 L 122 0.3 L 122 70.3 L 112.5 70.3 L 112.5 38.4 L 78 38.4 L 78 70.3 Z M 190.1 64.7 L 183.5 71.5 L 149.5 38.1 L 149.5 70.3 L 140 70.3 L 140 0.3 L 149.5 0.3 L 149.5 32.2 L 179.3 0 L 185.7 5.9 L 158.4 34.3 L 190.1 64.7 Z M 0 43.7 L 0 0.3 L 9.5 0.3 L 9.5 42.2 A 39.482 39.482 0 0 0 9.9 48.011 Q 10.781 53.919 13.6 57.7 A 13.242 13.242 0 0 0 22.056 62.856 A 20.418 20.418 0 0 0 25.9 63.2 A 21.386 21.386 0 0 0 30.904 62.651 A 13.455 13.455 0 0 0 38.6 57.85 A 17.382 17.382 0 0 0 41.396 52.455 Q 42.186 50.036 42.531 47.094 A 42.042 42.042 0 0 0 42.8 42.2 L 42.8 0.3 L 52 0.3 L 52 43.3 A 39.957 39.957 0 0 1 51.378 50.531 A 28.663 28.663 0 0 1 48.75 58.45 Q 45.5 64.8 39.65 68.15 A 25.023 25.023 0 0 1 31.089 71.104 A 32.816 32.816 0 0 1 25.9 71.5 A 32.706 32.706 0 0 1 17.895 70.575 A 22.492 22.492 0 0 1 6.9 64.3 Q 0.788 57.923 0.09 46.681 A 48.096 48.096 0 0 1 0 43.7 Z" vector-effect="non-scaling-stroke"/></g></svg>